{"title":"Bill Hicks - Revelations (1993) [XviD] [Napisy PL]","uid":12706081,"size":383664221,"categoryP":"video","categoryS":"other","magnet":"?xt=urn:btih:09e011c18ed67f863d5844802662fe985340d8ec&amp;dn=Bill+Hicks+-+Revelations+%281993%29+%5BXviD%5D+%5BNapisy+PL%5D&amp;tr=udp%3A%2F%2Ftracker.leechers-paradise.org%3A6969&amp;tr=udp%3A%2F%2Fzer0day.ch%3A1337&amp;tr=udp%3A%2F%2Fopen.demonii.com%3A1337&amp;tr=udp%3A%2F%2Ftracker.coppersurfer.tk%3A6969&amp;tr=udp%3A%2F%2Fexodus.desync.com%3A6969","seeders":1,"leechers":0,"uploader":"qculfj","files":2,"time":1446830254,"description":"Bill Hicks in the height of his genius. \r\n\r\nRecorded at the Dominion Theatre in London, Bill Hicks opens our eyes and minds to the hypocrisy and ludicrousness of the world around us.\r\n\r\nFormat                                   : AVI\r\nFormat/Info                              : Audio Video Interleave\r\nFile size                                : 366 MiB\r\nDuration                                 : 1h 14mn\r\nOverall bit rate                         : 688 Kbps\r\nWriting library                          : Boilsoft Joiner build 2411/release\r\n\r\nVideo\r\nID                                       : 0\r\nFormat                                   : MPEG-4 Visual\r\nFormat settings, BVOP                    : Yes\r\nFormat settings, QPel                    : No\r\nFormat settings, GMC                     : No warppoints\r\nFormat settings, Matrix                  : Default (H.263)\r\nCodec ID                                 : XVID\r\nCodec ID/Hint                            : XviD\r\nDuration                                 : 1h 14mn\r\nBit rate                                 : 484 Kbps\r\nWidth                                    : 640 pixels\r\nHeight                                   : 480 pixels\r\nDisplay aspect ratio                     : 4:3\r\nFrame rate                               : 29.970 fps\r\nColor space                              : YUV\r\nChroma subsampling                       : 4:2:0\r\nBit depth                                : 8 bits\r\nScan type                                : Progressive\r\nCompression mode                         : Lossy\r\nBits/(Pixel*Frame)                       : 0.053\r\nStream size                              : 257 MiB (70%)\r\n\r\nAudio\r\nID                                       : 1\r\nFormat                                   : MPEG Audio\r\nFormat version                           : Version 1\r\nFormat profile                           : Layer 3\r\nMode                                     : Joint stereo\r\nMode extension                           : MS Stereo\r\nCodec ID                                 : 55\r\nCodec ID/Hint                            : MP3\r\nDuration                                 : 1h 14mn\r\nBit rate mode                            : Constant\r\nBit rate                                 : 192 Kbps\r\nChannel(s)                               : 2 channels\r\nSampling rate                            : 48.0 KHz\r\nCompression mode                         : Lossy\r\nDelay relative to video                  : 3ms\r\nStream size                              : 102 MiB (28%)\r\nAlignment                                : Split accross interleaves\r\nInterleave, duration                     : 33 ms (1.00 video frame)\r\nInterleave, preload duration             : 500 ms","torrent":{"xt":"urn:btih:09e011c18ed67f863d5844802662fe985340d8ec","amp;dn":"Bill+Hicks+-+Revelations+%281993%29+%5BXviD%5D+%5BNapisy+PL%5D","amp;tr":["udp%3A%2F%2Ftracker.leechers-paradise.org%3A6969","udp%3A%2F%2Fzer0day.ch%3A1337","udp%3A%2F%2Fopen.demonii.com%3A1337","udp%3A%2F%2Ftracker.coppersurfer.tk%3A6969","udp%3A%2F%2Fexodus.desync.com%3A6969"],"infoHash":"09e011c18ed67f863d5844802662fe985340d8ec","infoHashBuffer":{"type":"Buffer","data":[9,224,17,193,142,214,127,134,61,88,68,128,38,98,254,152,83,64,216,236]},"announce":[],"urlList":[]}}